<svg id="Layer_3" height="512" viewBox="0 0 64 64" width="512" xmlns="http://www.w3.org/2000/svg" data-name="Layer 3"><path d="m32 36a2 2 0 0 1 -2-2v-3a11 11 0 0 0 -22 0v3a2 2 0 0 1 -2 2 1 1 0 0 0 -.8 1.6l2.167 2.889a3 3 0 0 0 -1.367 2.511v8a1 1 0 0 0 1 1h24a1 1 0 0 0 1-1v-8a3 3 0 0 0 -1.367-2.511l2.167-2.889a1 1 0 0 0 -.8-1.6zm-22-2v-3a9 9 0 0 1 18 0v3a4 4 0 0 0 2.289 3.615l-1.789 2.385h-5.5v-1.264a6.991 6.991 0 0 0 3-5.736v-5a1 1 0 0 0 -1-1 3.8 3.8 0 0 1 -2.707-1.121l-.586-.586a1 1 0 0 0 -.707-.293h-1.528a8.192 8.192 0 0 0 -7.367 4.553 1 1 0 0 0 -.105.447v3a6.991 6.991 0 0 0 3 5.736v1.264h-5.5l-1.789-2.385a4 4 0 0 0 2.289-3.615zm9 4a5.006 5.006 0 0 1 -5-5v-2.755a6.2 6.2 0 0 1 5.472-3.245h1.114l.293.293a5.786 5.786 0 0 0 3.121 1.622v4.085a5.006 5.006 0 0 1 -5 5zm-2 1.7a6.927 6.927 0 0 0 4 0v1.3a2 2 0 0 1 -4 0zm13 10.3h-22v-7a1 1 0 0 1 1-1h6.142a3.981 3.981 0 0 0 7.716 0h6.142a1 1 0 0 1 1 1z"/><path d="m58 22h-24a1 1 0 0 0 -1 1v12a1 1 0 0 0 1 1h24a1 1 0 0 0 1-1v-12a1 1 0 0 0 -1-1zm-1 12h-22v-10h22z"/><path d="m41 26h8v2h-8z"/><path d="m51 26h4v2h-4z"/><path d="m37 30h18v2h-18z"/><path d="m46 38a7 7 0 1 0 7 7 7.008 7.008 0 0 0 -7-7zm0 12a5 5 0 1 1 5-5 5.006 5.006 0 0 1 -5 5z"/><path d="m45 45.586-1.293-1.293-1.414 1.414 2 2a1 1 0 0 0 1.414 0l4-4-1.414-1.414z"/><path d="m58 16h-17.055a9 9 0 0 0 -17.89 0h-17.055a5.006 5.006 0 0 0 -5 5v29.9a5.006 5.006 0 0 0 5 5h52a5.006 5.006 0 0 0 5-5v-29.9a5.006 5.006 0 0 0 -5-5zm3 34.9a3 3 0 0 1 -3 3h-52a3 3 0 0 1 -3-3v-29.9a3 3 0 0 1 3-3h18a1 1 0 0 0 1-1 7 7 0 0 1 14 0 1 1 0 0 0 1 1h18a3 3 0 0 1 3 3z"/><path d="m32 20a4 4 0 1 0 -4-4 4 4 0 0 0 4 4zm0-6a2 2 0 1 1 -2 2 2 2 0 0 1 2-2z"/></svg>