<?xml version="1.0" encoding="UTF-8"?>
<svg xmlns="http://www.w3.org/2000/svg" width="512" height="512" viewBox="0 0 512 512"><g><path d="M256,56a32,32,0,1,0,32,32A32.036,32.036,0,0,0,256,56Zm0,48a16,16,0,1,1,16-16A16.019,16.019,0,0,1,256,104Z"/><path d="M472,208a8,8,0,0,0,8-8V184h16a8,8,0,0,0,8-8V144a8,8,0,0,0-8-8H481.89L259.58,24.84a8.049,8.049,0,0,0-7.16,0L30.11,136H16a8,8,0,0,0-8,8v32a8,8,0,0,0,8,8H32v16a8,8,0,0,0,8,8H56V416H40a8,8,0,0,0-8,8v16H16a8,8,0,0,0-8,8v32a8,8,0,0,0,8,8H496a8,8,0,0,0,8-8V448a8,8,0,0,0-8-8H480V424a8,8,0,0,0-8-8H456V208ZM256,40.94,446.11,136H65.89ZM24,168V152H488v16ZM336,416H320V336a63.65,63.65,0,0,0-18.74-45.26c-.88-.88-1.8-1.73-2.74-2.56L310,276.71a34.157,34.157,0,0,0-48.3-48.31l-5.6,5.6-5.6-5.6a34.16,34.16,0,0,0-48.31,48.31l11.38,11.37A63.75,63.75,0,0,0,192,336v80H176a8,8,0,0,0-8,8v16H144V424a8,8,0,0,0-8-8H120V208h16a8,8,0,0,0,8-8V184H368v16a8,8,0,0,0,8,8h16V416H376a8,8,0,0,0-8,8v16H344V424A8,8,0,0,0,336,416ZM224.92,299.43l25.52,25.52a8,8,0,0,0,11.31,0l25.43-25.43c.95.82,1.88,1.65,2.76,2.53A47.717,47.717,0,0,1,304,336v80H208V336A47.81,47.81,0,0,1,224.92,299.43Zm-11.41-34.04a18.151,18.151,0,1,1,25.67-25.67l11.26,11.25a8,8,0,0,0,11.31,0l11.26-11.25a18.151,18.151,0,1,1,25.67,25.67L256.1,307.98ZM328,432v8H184v-8ZM48,192v-8h80v8Zm56,16V416H72V208ZM48,432h80v8H48Zm440,24v16H24V456Zm-24-24v8H384v-8Zm-56-16V208h32V416ZM384,192v-8h80v8Z"/></g></svg>
