<svg id="Icons" height="512" viewBox="0 0 74 74" width="512" xmlns="http://www.w3.org/2000/svg"><path d="m31.25 65.584h-25a1 1 0 0 1 -1-1v-33a1 1 0 0 1 .73-.963l25-7a1 1 0 0 1 1.27.963v40a1 1 0 0 1 -1 1zm-24-2h23v-37.684l-23 6.44z"/><path d="m31.25 65.584h-25a1 1 0 0 1 -1-1v-33a1 1 0 0 1 .73-.963l25-7a1 1 0 0 1 1.27.963v40a1 1 0 0 1 -1 1zm-24-2h23v-37.684l-23 6.44z"/><path d="m3.25 33.36a1 1 0 0 1 -1-1v-5a1 1 0 0 1 .735-.964l28-7.683a1 1 0 0 1 1.265.965v4.906a1 1 0 0 1 -.732.963l-28 7.777a1.018 1.018 0 0 1 -.268.036zm1-5.237v2.922l26-7.221v-2.835z"/><path d="m67 65.584h-35.75a1 1 0 0 1 -1-1v-49.25a1 1 0 0 1 .383-.787.989.989 0 0 1 .854-.184l35.75 8.75a1 1 0 0 1 .763.971v40.5a1 1 0 0 1 -1 1zm-34.75-2h33.75v-38.715l-33.75-8.261z"/><path d="m67 65.584h-35.75a1 1 0 0 1 -1-1v-49.25a1 1 0 0 1 .383-.787.989.989 0 0 1 .854-.184l35.75 8.75a1 1 0 0 1 .763.971v40.5a1 1 0 0 1 -1 1zm-34.75-2h33.75v-38.715l-33.75-8.261z"/><path d="m45.711 14.68a.993.993 0 0 1 -.235-.028l-2.9-.7a1 1 0 0 1 .469-1.944l2.9.7a1 1 0 0 1 -.233 1.972z"/><path d="m70.75 26.05a1.03 1.03 0 0 1 -.24-.029l-42.5-10.5a1 1 0 0 1 -.76-.971v-5.13a1 1 0 0 1 1.237-.971l7.56 1.85a1 1 0 1 1 -.475 1.942l-6.322-1.547v3.073l40.5 10v-3.182l-7.308-1.785a1 1 0 0 1 .475-1.944l8.07 1.97a1 1 0 0 1 .763.972v5.25a1 1 0 0 1 -1 1z"/><path d="m55.681 17.12a.991.991 0 0 1 -.24-.029l-2.969-.73a1 1 0 1 1 .476-1.942l2.97.73a1 1 0 0 1 -.237 1.971z"/><path d="m59.125 52.5h-20a1 1 0 0 1 -1-1v-18a1 1 0 0 1 1-1h20a1 1 0 0 1 1 1v18a1 1 0 0 1 -1 1zm-19-2h18v-16h-18z"/><path d="m49.125 52.5a1 1 0 0 1 -1-1v-18a1 1 0 0 1 2 0v18a1 1 0 0 1 -1 1z"/><path d="m59.125 43.5h-20a1 1 0 0 1 0-2h20a1 1 0 0 1 0 2z"/><path d="m27 65.584h-16a1 1 0 0 1 -1-1v-19.334a1 1 0 0 1 1-1h16a1 1 0 0 1 1 1v19.334a1 1 0 0 1 -1 1zm-15-2h14v-17.334h-14z"/><path d="m27 50.709h-16a1 1 0 0 1 0-2h16a1 1 0 0 1 0 2z"/><path d="m27 55.917h-16a1 1 0 0 1 0-2h16a1 1 0 0 1 0 2z"/><path d="m27 61.125h-16a1 1 0 0 1 0-2h16a1 1 0 0 1 0 2z"/></svg>