<svg height="498pt" viewBox="-1 0 498 498.136" width="498pt" xmlns="http://www.w3.org/2000/svg"><path d="m80.066406 362.136719h16v16h-16zm0 0"/><path d="m48.066406 362.136719h16v16h-16zm0 0"/><path d="m240.066406 386.136719h16v16h-16zm0 0"/><path d="m280.066406 386.136719h16v16h-16zm0 0"/><path d="m320.066406 386.136719h16v16h-16zm0 0"/><path d="m496.066406 162.136719h-24v-80h16v-19.914063l-80-62.222656-80 62.222656v19.914063h16v80h-24v80h16v32h-129.75l-7.992187-32h-156.503907l-7.992187 32h-33.7617188v48h15.9999998v112h-15.9999998v64h479.9999998v-256h16zm-88-141.863281 58.96875 45.863281h-117.933594zm-48 61.863281h96v80h-96zm120 96v16h-144v-16zm-140.941406 112 8 16h-107.058594v-16zm-99.058594 32h128v16h-144v-16zm-176 128v32h-16v-32zm16 0h16v32h-16zm96-64h-48v-32h48zm-48 16h48v32h-48zm-16 48h160v32h-160zm176 0h16v32h-16zm32 0h16v32h-16zm-96-16v-80h128v80zm-169.75-176h131.503906l4.007813 16h-139.511719zm-38.25 32h208v16h-208zm16 32h176v112h-16v-96h-80v96h-80zm-16 128h16v32h-16zm352 32h-16v-32h16zm96 0h-80v-48h-16v-80h16v-16h16v-16h-16v-16h-19.054687l-12.945313-25.890625v-38.109375h112zm-128-256v-16h144v16zm0 0"/><path d="m384.066406 98.136719v48h48v-48zm32 32h-16v-16h16zm0 0"/><path d="m384.066406 258.136719h16v16h-16zm0 0"/><path d="m416.066406 258.136719h16v16h-16zm0 0"/><path d="m416.066406 290.136719h16v16h-16zm0 0"/><path d="m416.066406 322.136719h16v16h-16zm0 0"/><path d="m384.066406 354.136719h16v16h-16zm0 0"/><path d="m416.066406 354.136719h16v16h-16zm0 0"/><path d="m384.066406 290.136719h16v16h-16zm0 0"/></svg>