<svg width="512" height="512" viewBox="0 0 512 512" fill="none" xmlns="http://www.w3.org/2000/svg">
<g clip-path="url(#clip0)">
<path d="M3.84 266.397L99.84 378.397C104.192 383.485 111.328 385.341 117.568 383.005C123.84 380.669 128 374.685 128 367.997V318.109L497.984 271.869C505.984 270.877 512 264.061 512 255.997C512 247.933 505.984 241.117 497.984 240.125L128 193.885L128 143.997C128 137.309 123.84 131.325 117.568 128.989C115.744 128.317 113.888 127.997 112 127.997C107.392 127.997 102.944 129.981 99.84 133.597L3.84 245.597C-1.28 251.581 -1.28 260.413 3.84 266.397Z" fill="black"/>
</g>
<defs>
<clipPath id="clip0">
<rect width="512" height="512" fill="white" transform="translate(512 512) rotate(180)"/>
</clipPath>
</defs>
</svg>
